<svg xmlns="http://www.w3.org/2000/svg" width="1em" height="1em" preserveAspectRatio="xMidYMid meet" viewBox="0 0 256 256"><path fill="#42b883" d="M44 136a12 12 0 0 0 12-12V48h80v52a12 12 0 0 0 12 12h52v12a12 12 0 0 0 24 0V92a12.3 12.3 0 0 0-3.5-8.5l-56-56A12.3 12.3 0 0 0 156 24H52a20.1 20.1 0 0 0-20 20v80a12 12 0 0 0 12 12Zm147-48h-31V57ZM44 152H28a12 12 0 0 0-12 12v56a12 12 0 0 0 12 12h16a40 40 0 0 0 0-80Zm0 56h-4v-32h4a16 16 0 0 1 0 32Zm193.9.8a12 12 0 0 1-3.1 16.7A37.1 37.1 0 0 1 214 232c-21 0-38-17.9-38-40s17-40 38-40a37.1 37.1 0 0 1 20.8 6.5a12 12 0 1 1-13.6 19.8a12.8 12.8 0 0 0-7.2-2.3c-7.7 0-14 7.2-14 16s6.3 16 14 16a12.8 12.8 0 0 0 7.2-2.3a12 12 0 0 1 16.7 3.1ZM130 152c-21 0-38 17.9-38 40s17 40 38 40s38-17.9 38-40s-17-40-38-40Zm0 56c-7.7 0-14-7.2-14-16s6.3-16 14-16s14 7.2 14 16s-6.3 16-14 16Z"/></svg>